# Exported from Figuro at https://www.figuro.io

mtllib newscene.mtl
o cube29
v 309.34265276207174 0 -695.7120465372368
v -179.72231877640576 0 -695.7120465372368
v -179.72231877640576 256 -695.7120465372368
v 309.34265276207174 256 -695.7120465372368
v -179.72231877640576 0 75.59185754579539
v -179.72231877640576 256 75.59185754579539
v 309.34265276207174 0 75.59185754579539
v 309.34265276207174 256 75.59185754579539
# 8 vertices
vt -1.2083697373518427 2
vt 0.702040307720335 2
vt 0.702040307720335 1
vt -1.2083697373518427 1
vt -2.7176251817860813 2
vt 0.29528069353826325 2
vt 0.29528069353826325 1
vt -2.7176251817860813 1
vt -0.702040307720335 2
vt 1.2083697373518427 2
vt 1.2083697373518427 1
vt -0.702040307720335 1
vt -0.29528069353826325 2
vt 2.7176251817860813 2
vt 2.7176251817860813 1
vt -0.29528069353826325 1
vt 1.2083697373518427 -1.7176251817860813
vt -0.702040307720335 -1.7176251817860813
vt -0.702040307720335 1.2952806935382633
vt 1.2083697373518427 1.2952806935382633
vt 1.2083697373518427 0.7047193064617367
vt -0.702040307720335 0.7047193064617367
vt -0.702040307720335 3.7176251817860813
vt 1.2083697373518427 3.7176251817860813
# 24 uvs
vn 0.3333333333333333 -0.3333333333333333 -0.3333333333333333
vn -0.3333333333333333 -0.3333333333333333 -0.3333333333333333
vn -0.3333333333333333 0.3333333333333333 -0.3333333333333333
vn 0.3333333333333333 0.3333333333333333 -0.3333333333333333
vn -0.3333333333333333 -0.3333333333333333 0.3333333333333333
vn -0.3333333333333333 0.3333333333333333 0.3333333333333333
vn 0.3333333333333333 -0.3333333333333333 0.3333333333333333
vn 0.3333333333333333 0.3333333333333333 0.3333333333333333
# 8 normals
usemtl f9cb9c
f 1/4/1 2/3/2 3/2/3 4/1/4 
f 2/8/2 5/7/5 6/6/6 3/5/3 
f 5/12/5 7/11/7 8/10/8 6/9/6 
f 7/16/7 1/15/1 4/14/4 8/13/8 
f 7/20/7 5/19/5 2/18/2 1/17/1 
f 4/24/4 3/23/3 6/22/6 8/21/8 
# 6 polygons
o rectangle30
v 139.09696396875796 257 -304.4385329611971
v 139.09696396875796 257 -111.9602859537074
v 36.42741086494607 257 -111.9602859537074
v 36.42741086494607 257 -304.4385329611971
# 4 vertices
vt 0.5433475155029608 2.189213019379676
vt 0.5433475155029608 1.4373448670066695
vt 0.14229457369119558 1.4373448670066695
vt 0.14229457369119558 2.189213019379676
# 4 uvs
vn 0 1 0
vn 0 1 0
vn 0 1 0
vn 0 1 0
# 4 normals
usemtl 009966
f 12/28/12 11/27/11 10/26/10 9/25/9 
# 1 polygons
o cube31
v 61.66667196431668 257 -260.4836423163538
v 61.66667196431668 257 -88.18826068710223
v 61.66667196431668 513 -88.18826068710223
v 61.66667196431668 513 -260.4836423163538
v -25.265789748160017 257 -88.18826068710223
v -25.265789748160017 513 -88.18826068710223
v -25.265789748160017 257 -260.4836423163538
v -25.265789748160017 513 -260.4836423163538
# 8 vertices
vt 1.017514227798257 2.00390625
vt 0.3444853933089931 2.00390625
vt 0.3444853933089931 3.00390625
vt 1.017514227798257 3.00390625
vt 0.24088543736061202 2.00390625
vt -0.09869449120375007 2.00390625
vt -0.09869449120375007 3.00390625
vt 0.24088543736061202 3.00390625
vt -0.3444853933089931 2.00390625
vt -1.017514227798257 2.00390625
vt -1.017514227798257 3.00390625
vt -0.3444853933089931 3.00390625
vt 0.09869449120375007 2.00390625
vt -0.24088543736061202 2.00390625
vt -0.24088543736061202 3.00390625
vt 0.09869449120375007 3.00390625
vt -0.09869449120375007 -0.017514227798256954
vt -0.09869449120375007 0.6555146066910069
vt 0.24088543736061202 0.6555146066910069
vt 0.24088543736061202 -0.017514227798256954
vt 0.24088543736061202 2.017514227798257
vt 0.24088543736061202 1.344485393308993
vt -0.09869449120375007 1.344485393308993
vt -0.09869449120375007 2.017514227798257
# 24 uvs
vn 0.3333333333333333 -0.3333333333333333 -0.3333333333333333
vn 0.3333333333333333 -0.3333333333333333 0.3333333333333333
vn 0.3333333333333333 0.3333333333333333 0.3333333333333333
vn 0.3333333333333333 0.3333333333333333 -0.3333333333333333
vn -0.3333333333333333 -0.3333333333333333 0.3333333333333333
vn -0.3333333333333333 0.3333333333333333 0.3333333333333333
vn -0.3333333333333333 -0.3333333333333333 -0.3333333333333333
vn -0.3333333333333333 0.3333333333333333 -0.3333333333333333
# 8 normals
usemtl a9ba9d
f 16/32/16 15/31/15 14/30/14 13/29/13 
f 15/36/15 18/35/18 17/34/17 14/33/14 
f 18/40/18 20/39/20 19/38/19 17/37/17 
f 20/44/20 16/43/16 13/42/13 19/41/19 
f 13/48/13 14/47/14 17/46/17 19/45/19 
f 20/52/20 18/51/18 15/50/15 16/49/16 
# 6 polygons
o cube32
v 216.76693846747406 256 -217.57267357465503
v 216.76693846747406 256 -54.47501020477512
v 216.76693846747406 512 -54.47501020477512
v 216.76693846747406 512 -217.57267357465503
v 100.64283182286019 256 -54.47501020477512
v 100.64283182286019 512 -54.47501020477512
v 100.64283182286019 256 -217.57267357465503
v 100.64283182286019 512 -217.57267357465503
# 8 vertices
vt 0.8498932561509962 2
vt 0.2127930086124028 2
vt 0.2127930086124028 3
vt 0.8498932561509962 3
vt 0.8467458533885706 2
vt 0.3931360618080476 2
vt 0.3931360618080476 3
vt 0.8467458533885706 3
vt -0.2127930086124028 2
vt -0.8498932561509962 2
vt -0.8498932561509962 3
vt -0.2127930086124028 3
vt -0.3931360618080476 2
vt -0.8467458533885706 2
vt -0.8467458533885706 3
vt -0.3931360618080476 3
vt 0.3931360618080476 0.1501067438490038
vt 0.3931360618080476 0.7872069913875972
vt 0.8467458533885706 0.7872069913875972
vt 0.8467458533885706 0.1501067438490038
vt 0.8467458533885706 1.8498932561509962
vt 0.8467458533885706 1.2127930086124028
vt 0.3931360618080476 1.2127930086124028
vt 0.3931360618080476 1.8498932561509962
# 24 uvs
vn 0.3333333333333333 -0.3333333333333333 -0.3333333333333333
vn 0.3333333333333333 -0.3333333333333333 0.3333333333333333
vn 0.3333333333333333 0.3333333333333333 0.3333333333333333
vn 0.3333333333333333 0.3333333333333333 -0.3333333333333333
vn -0.3333333333333333 -0.3333333333333333 0.3333333333333333
vn -0.3333333333333333 0.3333333333333333 0.3333333333333333
vn -0.3333333333333333 -0.3333333333333333 -0.3333333333333333
vn -0.3333333333333333 0.3333333333333333 -0.3333333333333333
# 8 normals
usemtl 8ab9f1
f 24/56/24 23/55/23 22/54/22 21/53/21 
f 23/60/23 26/59/26 25/58/25 22/57/22 
f 26/64/26 28/63/28 27/62/27 25/61/25 
f 28/68/28 24/67/24 21/66/21 27/65/27 
f 21/72/21 22/71/22 25/70/25 27/69/27 
f 28/76/28 26/75/26 23/74/23 24/73/24 
# 6 polygons
o cube33
v -132.2068794705284 256 -151.20471452561446
v -132.2068794705284 256 -106.52963449031427
v -132.2068794705284 512 -106.52963449031427
v -132.2068794705284 512 -151.20471452561446
v -81.1070044646994 256 -106.52963449031427
v -81.1070044646994 512 -106.52963449031427
v -81.1070044646994 256 -151.20471452561446
v -81.1070044646994 512 -151.20471452561446
# 8 vertices
vt -0.5906434161156815 3
vt -0.4161313847277901 3
vt -0.4161313847277901 2
vt -0.5906434161156815 2
vt -0.5164331229317516 3
vt -0.31682423619023203 3
vt -0.31682423619023203 2
vt -0.5164331229317516 2
vt 0.4161313847277901 3
vt 0.5906434161156815 3
vt 0.5906434161156815 2
vt 0.4161313847277901 2
vt 0.31682423619023203 3
vt 0.5164331229317516 3
vt 0.5164331229317516 2
vt 0.31682423619023203 2
vt -0.5164331229317516 0.4093565838843185
vt -0.5164331229317516 0.5838686152722099
vt -0.31682423619023203 0.5838686152722099
vt -0.31682423619023203 0.4093565838843185
vt -0.31682423619023203 1.5906434161156815
vt -0.31682423619023203 1.41613138472779
vt -0.5164331229317516 1.41613138472779
vt -0.5164331229317516 1.5906434161156815
# 24 uvs
vn -0.3333333333333333 -0.3333333333333333 -0.3333333333333333
vn -0.3333333333333333 -0.3333333333333333 0.3333333333333333
vn -0.3333333333333333 0.3333333333333333 0.3333333333333333
vn -0.3333333333333333 0.3333333333333333 -0.3333333333333333
vn 0.3333333333333333 -0.3333333333333333 0.3333333333333333
vn 0.3333333333333333 0.3333333333333333 0.3333333333333333
vn 0.3333333333333333 -0.3333333333333333 -0.3333333333333333
vn 0.3333333333333333 0.3333333333333333 -0.3333333333333333
# 8 normals
usemtl ffe599
f 29/80/29 30/79/30 31/78/31 32/77/32 
f 30/84/30 33/83/33 34/82/34 31/81/31 
f 33/88/33 35/87/35 36/86/36 34/85/34 
f 35/92/35 29/91/29 32/90/32 36/89/36 
f 35/96/35 33/95/33 30/94/30 29/93/29 
f 32/100/32 31/99/31 34/98/34 36/97/36 
# 6 polygons